<svg width="122" height="41" viewBox="0 0 122 41" fill="none" xmlns="http://www.w3.org/2000/svg">
<g clip-path="url(#clip0_436_1609)">
<path d="M82.1213 19.4138C81.8381 19.405 81.5587 19.346 81.2962 19.2395C80.9858 19.1218 80.6947 18.9585 80.4323 18.7551C80.1669 18.551 79.9357 18.3057 79.7476 18.0287C79.5698 17.786 79.4717 17.4941 79.4669 17.1932C79.4701 16.4827 79.6951 15.791 80.1105 15.2148C80.5389 14.5937 81.0027 13.9979 81.4994 13.4301C81.9946 12.8602 82.4568 12.2952 82.8859 11.735C83.2903 11.2494 83.5174 10.6404 83.5295 10.0084C83.5299 9.58096 83.4118 9.16182 83.1883 8.79758C82.9609 8.42143 82.552 8.23335 81.9616 8.23335C81.1095 8.26 80.2776 8.49977 79.5419 8.93077C78.6645 9.40925 77.8643 10.0175 77.1682 10.7348C76.4535 11.4565 75.8494 12.2798 75.3752 13.1782C74.93 13.98 74.6882 14.8789 74.6711 15.796C74.6358 16.525 74.8808 17.2399 75.3559 17.7938C75.8381 18.3201 76.4121 18.7541 77.0496 19.0748C77.735 19.4297 78.4479 19.7285 79.1814 19.9683C79.8694 20.1876 80.542 20.453 81.1945 20.7626C82.1616 21.2141 82.9996 21.902 83.6311 22.7629C84.2361 23.591 84.4151 24.5863 84.1756 25.7487C83.9478 26.8073 83.4634 27.7936 82.7649 28.6207C82.0674 29.4489 81.2385 30.1566 80.3113 30.7153C79.3606 31.2837 78.3294 31.705 77.2529 31.9649C76.1869 32.2318 75.0924 32.3684 73.9936 32.3717C73.1318 32.3757 72.2751 32.2383 71.4578 31.9649C70.6966 31.7171 69.9919 31.3213 69.3841 30.8001C68.7673 30.2678 68.3135 29.5717 68.075 28.7923C67.8366 28.0129 67.8231 27.1819 68.0363 26.3952C68.2442 25.506 68.642 24.6724 69.2026 23.9519C69.3302 23.773 69.4718 23.6046 69.6261 23.4482C69.8003 23.269 69.9939 23.0873 70.2092 22.9057C70.4184 22.7286 70.6493 22.5788 70.8964 22.4602C71.1086 22.3512 71.3427 22.2916 71.5812 22.2858C71.8811 22.2932 72.1759 22.3659 72.445 22.4989C72.7574 22.6415 73.0502 22.8238 73.3161 23.0413C73.5763 23.2573 73.8124 23.5009 74.0202 23.7678C74.1986 23.9858 74.3407 24.2311 74.4412 24.4943C74.468 24.6217 74.4818 24.7515 74.4824 24.8817C74.4824 25.0125 74.4025 25.0755 74.2404 25.0755C73.8093 25.0824 73.3846 25.1806 72.9943 25.3636C72.5691 25.5534 72.175 25.8065 71.8255 26.1143C71.4846 26.4137 71.193 26.7651 70.9617 27.1556C70.74 27.5136 70.6212 27.9258 70.6181 28.347C70.6047 28.6667 70.705 28.9808 70.9012 29.2333C71.0861 29.4705 71.3251 29.6598 71.5981 29.7855C71.8938 29.9175 72.2041 30.0142 72.5224 30.0736C72.8341 30.135 73.1508 30.1674 73.4685 30.1705C74.1541 30.1574 74.836 30.0664 75.501 29.8993C76.2585 29.7216 76.9903 29.4482 77.6787 29.0856C78.3322 28.7484 78.9191 28.2955 79.4112 27.7489C79.8755 27.2345 80.1272 26.5628 80.1153 25.8698C80.1153 24.9399 79.5919 24.1399 78.545 23.47C77.7327 22.9756 76.8851 22.5418 76.0092 22.172C75.1574 21.8144 74.3304 21.4002 73.5338 20.9321C72.7811 20.4888 72.1133 19.9148 71.5618 19.237C70.9736 18.473 70.6046 17.563 70.4947 16.6048C70.3389 15.3339 70.52 14.0445 71.0198 12.8658C71.5392 11.5974 72.2974 10.4406 73.2532 9.45867C74.2374 8.4353 75.396 7.59561 76.6746 6.97897C77.9453 6.35327 79.3428 6.02847 80.759 6.02971C81.7753 6.00582 82.7825 6.22587 83.6965 6.67143C84.4957 7.06242 85.1253 7.73128 85.4677 8.553C85.7503 8.77781 85.98 9.06224 86.1403 9.38603C86.2902 9.66762 86.373 9.98006 86.3823 10.299C86.3641 11.0696 86.142 11.8217 85.7387 12.4784C85.3096 13.2291 84.8466 13.979 84.3498 14.728C83.8529 15.4771 83.3908 16.227 82.9633 16.9777C82.56 17.6344 82.3379 18.3865 82.3197 19.1571C82.3245 19.3242 82.2689 19.4138 82.1213 19.4138Z" fill="white"/>
<path d="M85.4147 28.4149C85.4652 28.1754 85.4992 27.9326 85.5163 27.6884C85.5314 27.4441 85.5645 27.2013 85.6155 26.9619C85.9257 25.0511 86.3434 23.1592 86.8665 21.2954C87.3524 19.5129 87.9712 17.7693 88.7176 16.0793C88.8797 15.7427 89.0805 15.5732 89.3201 15.5732C89.5463 15.5797 89.7704 15.6188 89.9855 15.6895C90.2434 15.7678 90.495 15.8657 90.738 15.9825C90.966 16.093 91.1874 16.2167 91.401 16.353C91.6018 16.4813 91.7688 16.5951 91.9043 16.7017C91.9523 16.7276 91.9942 16.7636 92.027 16.8073C92.0598 16.851 92.0827 16.9013 92.0942 16.9547C92.1057 17.0081 92.1055 17.0633 92.0936 17.1167C92.0817 17.17 92.0584 17.2201 92.0253 17.2635C91.9003 17.4614 91.8057 17.6769 91.7446 17.9028C91.3945 18.7584 91.0655 19.6641 90.7574 20.6198C90.4492 21.5755 90.1597 22.5321 89.8887 23.4894C89.6201 24.458 89.3878 25.371 89.1846 26.2645C88.9813 27.1581 88.8168 27.9596 88.6813 28.6498C88.628 28.9331 88.6692 29.0905 88.8023 29.1147C88.8862 29.1209 88.9705 29.1065 89.0476 29.0727C89.1248 29.039 89.1926 28.9869 89.2451 28.921C89.8981 28.2825 90.4784 27.5735 90.9751 26.807C91.5146 25.9896 92.0058 25.1414 92.4463 24.2667C92.8883 23.3869 93.2916 22.5199 93.6561 21.6659C94.0207 20.8119 94.3385 20.0475 94.6095 19.3727C94.6754 19.2336 94.7899 19.1234 94.9313 19.0627C95.0612 19.0118 95.2055 19.0118 95.3354 19.0627C95.466 19.113 95.5736 19.2095 95.6378 19.334C95.6705 19.3997 95.6891 19.4716 95.6925 19.545C95.6958 19.6184 95.6838 19.6917 95.6572 19.7601C95.4685 20.2009 95.2265 20.7829 94.9313 21.5061C94.6361 22.2326 94.2877 23.0148 93.886 23.8526C93.4843 24.6905 93.0415 25.5477 92.5576 26.3953C92.1064 27.2018 91.5952 27.9733 91.0284 28.7031C90.5455 29.3363 89.9845 29.9059 89.3588 30.3982C88.877 30.801 88.2754 31.0327 87.6481 31.0568C87.3172 31.0584 86.9915 30.975 86.702 30.8147C86.4199 30.6603 86.1728 30.4492 85.9761 30.1948C85.7765 29.94 85.6263 29.65 85.5333 29.3399C85.4348 29.042 85.3946 28.728 85.4147 28.4149ZM91.8946 8.59181C92.2688 7.86856 92.5915 7.50613 92.8625 7.50452C93.2305 7.57893 93.5886 7.69596 93.9296 7.85322C94.3885 8.04138 94.8271 8.27587 95.2386 8.55306C95.8 8.91388 95.8556 9.4442 95.3983 10.144C95.2096 10.4282 94.9482 10.8156 94.6143 11.3064C94.2804 11.7972 93.9247 12.2758 93.5472 12.7424C93.2036 13.1682 92.8344 13.5725 92.4415 13.9532C92.0785 14.3043 91.776 14.4787 91.5341 14.4787C90.9703 14.5053 90.6412 14.251 90.5493 13.7207C90.4591 13.1124 90.4928 12.4922 90.6485 11.8973C90.8106 11.2156 91.0258 10.5476 91.2921 9.89946C91.4712 9.4527 91.6748 9.01615 91.9019 8.59181H91.8946Z" fill="white"/>
<path d="M99.1463 26.7852C98.6086 27.8687 97.9318 28.8774 97.1332 29.7855C96.3831 30.6282 95.5644 31.0488 94.6772 31.0472C93.8739 31.0472 93.2423 30.822 92.7874 30.3691C92.3252 29.9057 92.04 29.2947 91.9817 28.6426C91.8513 27.466 91.8921 26.2767 92.1027 25.1119C92.3189 23.8136 92.6835 22.5444 93.1891 21.3294C93.6816 20.131 94.3213 18.9987 95.0934 17.9585C95.7871 16.9998 96.6888 16.2109 97.7308 15.6508C98.0414 15.4704 98.3984 15.3861 98.7568 15.4086C99.1342 15.4416 99.5058 15.523 99.8625 15.6508C100.207 15.7788 100.543 15.9284 100.869 16.0987C101.192 16.2602 101.527 16.4216 101.876 16.5831C101.91 16.5053 101.937 16.4241 101.956 16.3409C101.979 16.244 102.02 16.1522 102.077 16.0697C102.21 15.7331 102.398 15.5636 102.64 15.5636C103.135 15.5931 103.616 15.7365 104.046 15.9825C104.47 16.1883 104.875 16.4314 105.256 16.709C105.316 16.7476 105.363 16.8032 105.392 16.8688C105.42 16.9343 105.428 17.0068 105.416 17.0771C105.388 17.2215 105.334 17.3595 105.256 17.4839C105.095 17.7904 104.973 18.1158 104.893 18.4525C104.438 19.8231 104.029 21.1954 103.666 22.5692C103.303 23.9431 102.974 25.2346 102.679 26.4438L102.599 26.7925C103.701 25.8053 104.712 24.7209 105.619 23.5524C106.599 22.2811 107.387 20.8729 107.959 19.3727C107.982 19.3011 108.021 19.2358 108.073 19.182C108.126 19.1282 108.19 19.0874 108.261 19.0628C108.39 19.0118 108.534 19.0118 108.663 19.0628C108.784 19.1136 108.889 19.1975 108.965 19.3049C109.005 19.3655 109.026 19.4361 109.026 19.5083C109.026 19.5806 109.005 19.6512 108.965 19.7118C108.258 21.5589 107.252 23.2769 105.987 24.7971C104.833 26.1727 103.553 27.4374 102.164 28.5747C101.868 29.8404 101.546 31.0948 101.196 32.3379C100.846 33.581 100.442 34.8095 99.986 36.0235C99.5807 37.1896 98.9286 38.2543 98.0744 39.145C97.284 39.9344 96.1104 40.3291 94.5538 40.3291C94.0538 40.3259 93.5597 40.2204 93.102 40.0191C92.6335 39.824 92.2294 39.5009 91.9357 39.0868C91.6461 38.7132 91.4525 38.2742 91.3719 37.8082C91.2899 37.352 91.2965 36.8842 91.3913 36.4304C91.4887 35.9695 91.6517 35.5251 91.8752 35.1106C92.0969 34.6938 92.3745 34.3092 92.7003 33.9676C93.0576 33.5456 93.4637 33.1676 93.9101 32.8416C94.365 32.505 94.8345 32.1829 95.3184 31.8729C95.8023 31.563 96.2863 31.2651 96.7871 30.9818C97.288 30.6985 97.755 30.4127 98.176 30.1294C98.3357 29.5845 98.4979 29.0373 98.66 28.4803C98.8221 27.9233 98.9842 27.364 99.1463 26.7852ZM94.1545 38.5032C94.5633 38.4785 94.9492 38.3065 95.241 38.0189C95.6782 37.5976 95.9977 37.0692 96.1677 36.4861C96.4097 35.8129 96.6581 35.0759 96.913 34.2752C97.1678 33.4744 97.4292 32.6333 97.6969 31.7519C97.2396 32.0642 96.7291 32.3936 96.1677 32.7423C95.6047 33.0904 95.0728 33.4866 94.578 33.9264C94.1023 34.3409 93.6891 34.8222 93.3512 35.3552C93.0304 35.8646 92.8757 36.4612 92.9084 37.0624C92.9393 37.4088 93.0567 37.7418 93.2496 38.031C93.3447 38.1833 93.4787 38.3074 93.6378 38.3904C93.7969 38.4734 93.9753 38.5124 94.1545 38.5032ZM100.434 17.1933C99.7367 17.1933 99.0907 17.5565 98.4979 18.2806C97.8547 19.0922 97.3263 19.9885 96.9275 20.9443C96.4639 22.0106 96.0931 23.1149 95.8193 24.245C95.5725 25.2179 95.4106 26.2104 95.3353 27.2114C95.3353 27.3147 95.3281 27.4697 95.3136 27.6763C95.3 27.8775 95.3073 28.0796 95.3353 28.2793C95.3584 28.4615 95.4124 28.6384 95.495 28.8024C95.5242 28.8746 95.5745 28.9363 95.6392 28.9795C95.7039 29.0227 95.7802 29.0453 95.858 29.0445C96.1798 29.0445 96.5137 28.8314 96.8646 28.4052C97.2652 27.8974 97.6153 27.3515 97.9099 26.7755C98.2583 26.1168 98.6003 25.3799 98.9358 24.5646C99.2713 23.7493 99.573 22.9607 99.8408 22.1987C100.11 21.4367 100.352 20.745 100.567 20.1234C100.782 19.5011 100.942 19.0361 101.051 18.7262C101.104 18.5445 101.164 18.3702 101.23 18.2031C101.295 18.036 101.358 17.8713 101.411 17.7188C101.311 17.5505 101.168 17.4126 100.995 17.32C100.823 17.2274 100.629 17.1836 100.434 17.1933Z" fill="white"/>
<path d="M105.014 29.1897C105.104 28.1035 105.252 27.0227 105.456 25.9521C105.677 24.7946 105.933 23.6435 106.224 22.4989C106.514 21.3543 106.845 20.2315 107.216 19.1305C107.552 18.0915 107.948 17.0728 108.401 16.0793C108.537 15.7427 108.723 15.5732 108.965 15.5732C109.191 15.5796 109.415 15.6188 109.63 15.6894C109.891 15.7696 110.147 15.8667 110.395 15.98C110.631 16.0875 110.859 16.2113 111.077 16.3505C111.281 16.4788 111.448 16.5927 111.581 16.6992C111.629 16.7248 111.671 16.7607 111.704 16.8044C111.737 16.848 111.76 16.8984 111.772 16.9519C111.783 17.0054 111.783 17.0609 111.771 17.1142C111.759 17.1676 111.735 17.2177 111.702 17.261C111.576 17.4645 111.469 17.6784 111.38 17.9003C111.007 18.8318 110.652 19.8279 110.313 20.8885C109.974 21.9492 109.672 23.0099 109.408 24.0705C109.756 23.3198 110.152 22.5433 110.596 21.7409C111.039 20.9386 111.502 20.1629 111.985 19.4138C112.439 18.7036 112.929 18.0174 113.453 17.3579C113.891 16.8012 114.387 16.2937 114.934 15.8444C115.143 15.6563 115.418 15.5588 115.699 15.5732C115.917 15.5875 116.133 15.6265 116.343 15.6894C116.653 15.7729 116.956 15.8839 117.248 16.0212C117.532 16.1469 117.802 16.3028 118.053 16.4861C118.148 16.5397 118.228 16.6151 118.287 16.7061C118.347 16.7971 118.383 16.9011 118.394 17.0092C118.39 17.159 118.348 17.3054 118.273 17.4354C118.194 17.5903 118.119 17.7453 118.053 17.9003C117.988 18.0553 117.913 18.2248 117.831 18.4064C117.508 19.2346 117.206 20.1072 116.926 21.0242C116.645 21.9411 116.384 22.8524 116.142 23.7581C115.9 24.6638 115.678 25.5372 115.476 26.3783C115.275 27.2194 115.121 27.9757 115.014 28.6473C114.961 28.9306 114.988 29.1001 115.094 29.151C115.2 29.2018 115.363 29.1268 115.578 28.9088C116.23 28.2697 116.81 27.5608 117.308 26.7948C117.847 25.9774 118.337 25.1292 118.777 24.2545C119.22 23.3747 119.624 22.5078 119.987 21.6538C120.35 20.7998 120.66 20.0394 120.918 19.3726C120.983 19.233 121.098 19.1225 121.24 19.0627C121.37 19.0118 121.514 19.0118 121.644 19.0627C121.777 19.1121 121.887 19.2098 121.951 19.3363C121.985 19.4017 122.004 19.4736 122.008 19.5471C122.012 19.6205 122 19.694 121.973 19.7625C121.784 20.2032 121.542 20.7852 121.247 21.5085C120.952 22.2349 120.604 23.0171 120.202 23.855C119.8 24.6929 119.355 25.5501 118.874 26.3976C118.421 27.2031 117.91 27.9744 117.344 28.7054C116.861 29.3387 116.3 29.9082 115.675 30.4005C115.193 30.8034 114.591 31.035 113.964 31.0592C113.325 31.0816 112.703 30.852 112.232 30.4199C112.024 30.2501 111.861 30.0325 111.756 29.7858C111.651 29.5391 111.608 29.2706 111.629 29.0033C111.736 28.1751 111.877 27.2872 112.053 26.3395C112.228 25.3919 112.436 24.4232 112.674 23.4336C112.916 22.4505 113.178 21.4875 113.461 20.5447C113.743 19.6019 114.031 18.714 114.325 17.8809C113.813 18.416 113.349 18.9936 112.936 19.6075C112.461 20.2807 111.998 21.0177 111.547 21.8184C111.089 22.6224 110.661 23.4482 110.257 24.303C109.853 25.1578 109.492 25.9763 109.171 26.7657C108.849 27.5552 108.588 28.2841 108.387 28.9452C108.212 29.487 108.097 30.0466 108.046 30.6136C108.046 30.8195 107.997 30.943 107.903 30.9817C107.794 31.023 107.678 31.0428 107.562 31.0398C107.284 31.0325 107.011 30.9733 106.756 30.8655C106.464 30.7509 106.187 30.6013 105.931 30.4199C105.689 30.2501 105.472 30.0472 105.287 29.8169C105.127 29.6451 105.031 29.4238 105.014 29.1897Z" fill="white"/>
<path d="M0.123535 9.76135H4.83948V27.4123H15.5127V31.4805H0.123535V9.76135Z" fill="white"/>
<path d="M28.0825 15.1446C29.2678 15.695 30.2705 16.574 30.9716 17.6775C31.6719 18.7388 32.1258 19.9436 32.3 21.2034C32.4333 22.3282 32.481 23.4615 32.4428 24.5936H20.2936C20.3614 26.3032 20.9429 27.5019 22.0382 28.1896C22.7606 28.6271 23.5946 28.845 24.4385 28.8168C25.3129 28.8566 26.1723 28.5788 26.8582 28.0346C27.2323 27.7081 27.5367 27.3095 27.7535 26.8626H32.2057C32.0895 27.8748 31.5507 28.9016 30.5893 29.9428C29.0956 31.6008 27.0058 32.4298 24.32 32.4298C22.1754 32.457 20.0924 31.7129 18.4498 30.3327C16.7528 28.9363 15.9051 26.6616 15.9067 23.5087C15.9067 20.5544 16.6722 18.2894 18.203 16.7137C19.7339 15.1381 21.7204 14.3503 24.1627 14.3503C25.5113 14.328 26.8488 14.599 28.0825 15.1446ZM21.5615 18.9949C20.907 19.7306 20.5014 20.6543 20.4025 21.6344H27.9035C27.8261 20.4494 27.4397 19.551 26.7445 18.9392C26.0277 18.3195 25.1045 17.9919 24.1578 18.0214C23.0432 18.0214 22.1777 18.3459 21.5615 18.9949Z" fill="white"/>
<path d="M42.8696 15.256C44.0037 15.7186 44.9438 16.5585 45.5312 17.634V15.256H49.923V30.8219C49.923 32.9416 49.5487 34.5374 48.8002 35.6094C47.5097 37.4563 45.0449 38.3797 41.4057 38.3797C39.2038 38.3797 37.4076 37.968 36.0171 37.1447C34.6258 36.3238 33.8563 34.8442 33.7087 33.2072H38.6085C38.7344 33.7085 38.94 34.3211 39.2256 34.5415C39.7095 34.9338 40.5257 35.1291 41.6743 35.1275C43.2874 35.1275 44.3722 34.6109 44.9287 33.5777C45.2868 32.9142 45.4659 31.8002 45.4659 30.2359V29.1825C45.113 29.7964 44.6407 30.3332 44.077 30.7614C43.1817 31.4071 42.0171 31.7341 40.583 31.7421C38.3714 31.7421 36.6043 31.0019 35.2815 29.5215C33.9587 28.0411 33.2974 26.0361 33.2974 23.5063C33.2974 21.0686 33.9345 19.0183 35.2089 17.3555C36.4833 15.6927 38.2875 14.8629 40.6217 14.8661C41.3887 14.8552 42.151 14.9874 42.8696 15.256ZM44.4037 27.02C45.128 26.2629 45.4901 25.0521 45.4901 23.3877C45.4901 21.833 45.1457 20.6488 44.4569 19.8352C44.1193 19.4362 43.695 19.1197 43.2166 18.9099C42.7381 18.7 42.218 18.6024 41.6961 18.6244C40.1233 18.6244 39.0376 19.3315 38.4392 20.7457C38.0964 21.6331 37.9319 22.5794 37.9552 23.5305C37.9438 24.4054 38.1204 25.2726 38.473 26.0732C39.0796 27.4583 40.1709 28.1509 41.7469 28.1509C42.2448 28.1587 42.7387 28.0614 43.1965 27.8653C43.6543 27.6692 44.0656 27.3787 44.4037 27.0128V27.02Z" fill="white"/>
<path d="M59.0399 21.4843C59.6343 21.4324 60.2196 21.3054 60.7821 21.1065C61.408 20.845 61.7209 20.4414 61.7209 19.8957C61.7209 19.2225 61.479 18.7576 60.995 18.5009C60.5111 18.2442 59.8094 18.1158 58.8802 18.1158C57.8366 18.1158 57.0977 18.3677 56.6638 18.8714C56.3254 19.3084 56.1114 19.8288 56.0444 20.3776H51.8438C51.9358 18.9424 52.3447 17.7615 53.0706 16.8348C54.2288 15.3819 56.2154 14.6554 59.0303 14.6554C60.7193 14.6231 62.3922 14.9898 63.9132 15.7257C65.3424 16.4409 66.057 17.7873 66.057 19.7649V27.3009C66.057 27.824 66.0691 28.456 66.0884 29.1994C66.1199 29.7637 66.207 30.1439 66.3498 30.3448C66.5151 30.5655 66.7365 30.7378 66.991 30.8437V31.4806H62.2412C62.1168 31.1795 62.0244 30.8662 61.9653 30.5458C61.9145 30.2552 61.8734 29.9235 61.8443 29.553C61.2313 30.2005 60.526 30.7537 59.7513 31.1948C58.7732 31.7365 57.6703 32.0121 56.5525 31.9939C55.0346 31.9939 53.7812 31.5694 52.7923 30.7202C51.8035 29.871 51.3091 28.6675 51.3091 27.1096C51.3091 25.09 52.1043 23.6282 53.6949 22.7241C54.5692 22.2398 55.8532 21.8879 57.547 21.6683L59.0399 21.4843ZM61.7016 23.4893C61.4339 23.6547 61.1512 23.7941 60.8571 23.9059C60.4754 24.0355 60.0837 24.1335 59.686 24.1989L58.6939 24.3805C57.9994 24.4687 57.3231 24.6664 56.6904 24.9665C56.3635 25.1417 56.0931 25.4065 55.911 25.7298C55.7289 26.0532 55.6425 26.4217 55.6621 26.7924C55.6621 27.5189 55.8702 28.054 56.2912 28.3809C56.7305 28.7127 57.2703 28.8837 57.8204 28.8653C58.7596 28.8693 59.6775 28.5853 60.4506 28.0516C61.2572 27.5092 61.6742 26.5196 61.7016 25.0827V23.4893Z" fill="white"/>
<path d="M8.68421 0V8.69106H0L8.68421 0Z" fill="#FEA500"/>
<path d="M21.3294 0V12.861C19.6788 13.2707 18.1774 14.1387 16.9982 15.3649V4.34432H9.61572V0H21.3294Z" fill="#FEA500"/>
<path d="M55.5508 36.0065C55.8124 36.359 55.9448 36.7908 55.9259 37.2294C55.9438 37.6883 55.8141 38.1407 55.5557 38.5201C55.3596 38.7686 55.082 38.9397 54.772 39.003C54.4621 39.0664 54.1397 39.018 53.8619 38.8664C53.7327 38.7731 53.6219 38.6565 53.5353 38.5226V38.9415H52.6763V34.4349H53.5474V36.0404C53.6437 35.8982 53.7681 35.7771 53.9127 35.6845C54.0956 35.5766 54.3056 35.5236 54.5176 35.5319C54.7152 35.5231 54.9119 35.5616 55.0916 35.6442C55.2713 35.7267 55.4287 35.8509 55.5508 36.0065ZM54.8249 38.0382C54.9619 37.8217 55.0279 37.5677 55.0137 37.3118C55.0197 37.1122 54.9877 36.9133 54.9193 36.7258C54.8757 36.5908 54.7886 36.4742 54.6717 36.394C54.5549 36.3138 54.4147 36.2746 54.2733 36.2826C54.1314 36.2737 53.9906 36.3112 53.8719 36.3894C53.7532 36.4676 53.6631 36.5822 53.6151 36.7161C53.5481 36.9064 53.5169 37.1076 53.5232 37.3094C53.5136 37.5601 53.5811 37.8078 53.7167 38.0189C53.7811 38.1126 53.8686 38.188 53.9709 38.2377C54.0731 38.2874 54.1865 38.3096 54.2999 38.3022C54.4022 38.3058 54.5037 38.2836 54.5951 38.2374C54.6864 38.1913 54.7647 38.1228 54.8225 38.0382H54.8249Z" fill="white"/>
<path d="M56.463 39.5832H56.5719C56.6523 39.5917 56.7334 39.5917 56.8139 39.5832C56.8839 39.5758 56.9511 39.5517 57.0098 39.513C57.0773 39.4555 57.1269 39.3799 57.1526 39.295C57.1843 39.2322 57.204 39.1641 57.2107 39.0941L55.9863 35.5973H56.9542L57.6801 38.06L58.3721 35.5973H59.3013L58.1568 38.881C58.0378 39.296 57.861 39.6921 57.6317 40.0578C57.5035 40.2104 57.247 40.2855 56.8598 40.2855H56.6735C56.6275 40.2855 56.555 40.2855 56.463 40.2855V39.5832Z" fill="white"/>
<path d="M61.2178 34.4276H62.159V38.1302H64.4118V38.9414H61.2178V34.4276Z" fill="white"/>
<path d="M66.9574 35.6723C67.1911 35.7764 67.3907 35.9442 67.5333 36.1567C67.6726 36.3638 67.7636 36.5997 67.7995 36.8468C67.8246 37.0662 67.8343 37.2871 67.8285 37.5079H65.4088C65.4006 37.6455 65.4284 37.783 65.4895 37.9066C65.5506 38.0302 65.6429 38.1356 65.7573 38.2126C65.9029 38.3007 66.0711 38.3445 66.2412 38.3385C66.4154 38.3461 66.5867 38.2921 66.7252 38.1859C66.7988 38.1213 66.8596 38.0432 66.9042 37.9559H67.7947C67.7546 38.1867 67.6408 38.3983 67.4704 38.5589C67.3084 38.7248 67.1126 38.854 66.8964 38.9375C66.6801 39.0211 66.4484 39.0571 66.217 39.0432C65.7891 39.0496 65.3727 38.9047 65.041 38.6339C64.7023 38.3579 64.5329 37.9075 64.5329 37.2972C64.5166 37.0557 64.5489 36.8134 64.6279 36.5846C64.7068 36.3559 64.8309 36.1453 64.9927 35.9653C65.1493 35.8107 65.336 35.6899 65.5412 35.6103C65.7464 35.5308 65.9657 35.4942 66.1856 35.5028C66.4519 35.5045 66.7149 35.5622 66.9574 35.6723ZM65.6532 36.4254C65.519 36.5677 65.4342 36.7494 65.4113 36.9437H66.9139C66.912 36.8437 66.8895 36.7453 66.8479 36.6545C66.8063 36.5636 66.7464 36.4824 66.6719 36.4158C66.5277 36.2932 66.3432 36.2285 66.1541 36.2341C66.0621 36.231 65.9704 36.2462 65.8843 36.2791C65.7983 36.3119 65.7197 36.3617 65.6532 36.4254Z" fill="white"/>
<path d="M69.7179 35.5972C69.9393 35.6952 70.1203 35.8661 70.2309 36.0815V35.5972H71.0826V38.7647C71.1035 39.1017 71.0279 39.4377 70.8649 39.7333C70.6148 40.1094 70.1374 40.2967 69.4324 40.2951C69.069 40.3132 68.7078 40.2293 68.3895 40.0529C68.2593 39.974 68.1504 39.8642 68.0723 39.7334C67.9943 39.6025 67.9495 39.4545 67.9419 39.3023H68.8904C68.9057 39.3869 68.9481 39.4643 69.0114 39.5226C69.1537 39.6181 69.3251 39.6601 69.4953 39.6413C69.6195 39.6565 69.7454 39.6347 69.8573 39.5788C69.9692 39.5228 70.0621 39.435 70.1245 39.3265C70.2085 39.11 70.244 38.8777 70.2285 38.646V38.4329C70.1615 38.5565 70.0701 38.6652 69.9599 38.7525C69.7628 38.8934 69.5243 38.9642 69.2824 38.9535C69.0883 38.9607 68.8951 38.9237 68.7174 38.8453C68.5396 38.7668 68.382 38.649 68.2565 38.5007C67.9873 38.1563 67.8508 37.7266 67.8717 37.2899C67.8568 36.8435 67.9867 36.4043 68.2419 36.038C68.3608 35.8731 68.5188 35.7405 68.7017 35.6521C68.8847 35.5637 69.0867 35.5224 69.2897 35.5318C69.4353 35.5263 69.5806 35.5485 69.7179 35.5972ZM70.0156 37.9898C70.1715 37.7812 70.2464 37.523 70.2261 37.2633C70.2437 37.0053 70.1729 36.749 70.0252 36.5368C69.9612 36.4575 69.8794 36.3943 69.7866 36.3522C69.6937 36.3102 69.5923 36.2905 69.4905 36.2946C69.3526 36.2875 69.2162 36.3258 69.1022 36.4037C68.9881 36.4815 68.9027 36.5946 68.859 36.7257C68.794 36.9073 68.7637 37.0995 68.7694 37.2923C68.7658 37.4699 68.7987 37.6463 68.8662 37.8106C68.9124 37.9398 68.9991 38.0506 69.1133 38.1265C69.2276 38.2024 69.3632 38.2394 69.5002 38.2319C69.5982 38.2326 69.6952 38.2118 69.7843 38.1707C69.8734 38.1297 69.9523 38.0696 70.0156 37.9946V37.9898Z" fill="white"/>
<path d="M73.0159 36.9122C73.1351 36.9025 73.2523 36.8764 73.3644 36.8347C73.4173 36.8194 73.4641 36.7878 73.498 36.7443C73.5319 36.7008 73.5512 36.6477 73.5531 36.5925C73.5591 36.5363 73.5485 36.4795 73.5227 36.4292C73.4969 36.3789 73.457 36.3372 73.4079 36.3092C73.2751 36.2494 73.1298 36.2228 72.9845 36.2317C72.904 36.2234 72.8227 36.2328 72.7462 36.2591C72.6698 36.2855 72.6 36.3282 72.5417 36.3843C72.4732 36.4726 72.4304 36.5782 72.4183 36.6894H71.5762C71.5794 36.4279 71.664 36.174 71.8182 35.9629C72.0489 35.6691 72.4457 35.5222 73.0087 35.5222C73.344 35.5173 73.6756 35.592 73.9765 35.7401C74.1211 35.8192 74.2389 35.9394 74.3152 36.0856C74.3914 36.2317 74.4226 36.3972 74.4048 36.5611V38.0915C74.4048 38.1981 74.4048 38.3337 74.4048 38.4765C74.4013 38.5605 74.4196 38.644 74.458 38.7187C74.4911 38.7627 74.5354 38.797 74.5863 38.818V38.9463H73.6378C73.6125 38.8856 73.5938 38.8222 73.5821 38.7574C73.5705 38.6901 73.5624 38.6222 73.5579 38.554C73.4356 38.6855 73.2946 38.7981 73.1393 38.8882C72.9439 38.9987 72.7225 39.0547 72.4981 39.0504C72.2237 39.0612 71.9553 38.9688 71.7456 38.7913C71.6461 38.6994 71.568 38.5866 71.517 38.4611C71.466 38.3355 71.4433 38.2002 71.4504 38.0649C71.4383 37.8857 71.4774 37.7068 71.5631 37.549C71.6488 37.3912 71.7775 37.261 71.9343 37.1737C72.1754 37.053 72.4375 36.9799 72.7062 36.9582L73.0159 36.9122ZM73.5482 37.319C73.4951 37.352 73.4393 37.3804 73.3813 37.4038C73.3024 37.4305 73.2215 37.4507 73.1393 37.4643L72.9409 37.5006C72.8016 37.5185 72.6659 37.5585 72.5392 37.6193C72.4735 37.6553 72.4193 37.7092 72.3829 37.7748C72.3465 37.8404 72.3294 37.9149 72.3336 37.9898C72.3276 38.0496 72.3359 38.11 72.3578 38.166C72.3796 38.222 72.4145 38.272 72.4594 38.3119C72.5465 38.3795 72.654 38.4154 72.7643 38.4136C72.9532 38.4144 73.1377 38.3559 73.2918 38.2465C73.3781 38.1733 73.4453 38.0801 73.4875 37.975C73.5297 37.8699 73.5455 37.7561 73.5337 37.6435L73.5482 37.319Z" fill="white"/>
<path d="M75.0513 34.4276H75.9925V38.1302H78.2452V38.9414H75.0513V34.4276Z" fill="white"/>
<path d="M79.9291 36.9122C80.0483 36.9025 80.1655 36.8764 80.2776 36.8347C80.3302 36.8193 80.3767 36.7875 80.4102 36.744C80.4437 36.7005 80.4625 36.6474 80.4639 36.5925C80.4704 36.5365 80.4603 36.4798 80.435 36.4294C80.4096 36.3791 80.37 36.3373 80.3211 36.3092C80.1883 36.2494 80.043 36.2228 79.8977 36.2317C79.8172 36.2232 79.7359 36.2325 79.6594 36.2589C79.5829 36.2852 79.5131 36.328 79.4549 36.3843C79.3866 36.473 79.3431 36.5783 79.329 36.6894H78.487C78.4925 36.4283 78.5769 36.1751 78.729 35.9629C78.9613 35.6691 79.3589 35.5222 79.9219 35.5222C80.2571 35.5175 80.5888 35.5922 80.8897 35.7401C81.0338 35.8195 81.1512 35.9399 81.227 36.086C81.3028 36.2321 81.3336 36.3974 81.3156 36.561V38.0915C81.3156 38.198 81.3156 38.3264 81.3156 38.4765C81.312 38.5602 81.3295 38.6435 81.3664 38.7187C81.4006 38.7615 81.4446 38.7956 81.4946 38.818V38.9463H80.5752C80.5517 38.8851 80.5339 38.8219 80.5219 38.7574C80.5092 38.6903 80.5011 38.6223 80.4977 38.554C80.3755 38.6855 80.2344 38.7981 80.0791 38.8882C79.8836 38.9983 79.6623 39.0543 79.4379 39.0504C79.1635 39.0617 78.8948 38.9692 78.6854 38.7913C78.5851 38.6999 78.5063 38.5873 78.4548 38.4616C78.4033 38.336 78.3804 38.2004 78.3878 38.0648C78.376 37.8857 78.4152 37.7069 78.5009 37.5492C78.5865 37.3914 78.7151 37.2612 78.8717 37.1737C79.1121 37.0533 79.3733 36.9801 79.6412 36.9582L79.9291 36.9122ZM80.4614 37.319C80.4078 37.3525 80.3511 37.3809 80.2921 37.4037C80.2133 37.431 80.1324 37.4512 80.0501 37.4643L79.8493 37.5006C79.7107 37.5184 79.5759 37.5585 79.45 37.6193C79.3843 37.6553 79.3301 37.7092 79.2937 37.7748C79.2573 37.8403 79.2402 37.9149 79.2444 37.9898C79.2384 38.0496 79.2467 38.11 79.2686 38.166C79.2904 38.2219 79.3253 38.2719 79.3702 38.3118C79.4567 38.3806 79.5646 38.4166 79.6751 38.4136C79.864 38.414 80.0483 38.3556 80.2025 38.2465C80.2889 38.1733 80.3561 38.0801 80.3983 37.975C80.4404 37.8699 80.4563 37.7561 80.4445 37.6435L80.4614 37.319Z" fill="white"/>
<path d="M83.745 35.527H83.82V36.4206C83.7644 36.4206 83.716 36.4206 83.6724 36.4206H83.5684C83.4303 36.4038 83.2903 36.427 83.165 36.4875C83.0398 36.5481 82.9345 36.6433 82.8618 36.762C82.7837 36.9504 82.7498 37.1542 82.7626 37.3577V38.9511H81.8843V35.5972H82.7166V36.1784C82.8088 36.0091 82.9273 35.8554 83.0675 35.7232C83.2476 35.5795 83.4738 35.5063 83.7039 35.5173L83.745 35.527Z" fill="white"/>
<path d="M85.0272 35.2074H84.1416V34.401H85.0272V35.2074ZM84.1416 35.5973H85.0272V38.9342H84.1416V35.5973Z" fill="white"/>
<path d="M88.4537 38.5346C88.1101 38.8684 87.6501 39.055 87.1713 39.055C86.6925 39.055 86.2325 38.8684 85.8889 38.5346C85.6141 38.1742 85.4653 37.7335 85.4653 37.2802C85.4653 36.8269 85.6141 36.3862 85.8889 36.0258C86.2301 35.6875 86.691 35.4977 87.1713 35.4977C87.6516 35.4977 88.1125 35.6875 88.4537 36.0258C88.7269 36.3869 88.8748 36.8274 88.8748 37.2802C88.8748 37.7331 88.7269 38.1736 88.4537 38.5346ZM87.7544 38.0503C87.8892 37.8147 87.9601 37.548 87.9601 37.2766C87.9601 37.0052 87.8892 36.7385 87.7544 36.5029C87.6862 36.4135 87.5972 36.3421 87.4952 36.2948C87.3931 36.2476 87.2811 36.2259 87.1689 36.2317C87.0559 36.2259 86.9432 36.2476 86.8404 36.2948C86.7376 36.342 86.6478 36.4134 86.5785 36.5029C86.4437 36.7385 86.3728 37.0052 86.3728 37.2766C86.3728 37.548 86.4437 37.8147 86.5785 38.0503C86.6478 38.1398 86.7376 38.2112 86.8404 38.2584C86.9432 38.3056 87.0559 38.3273 87.1689 38.3215C87.2809 38.3276 87.3928 38.3063 87.4948 38.2595C87.5968 38.2126 87.6859 38.1417 87.7544 38.0527V38.0503Z" fill="white"/>
</g>
<defs>
<clipPath id="clip0_436_1609">
<rect width="122" height="40.3242" fill="white"/>
</clipPath>
</defs>
</svg>
