<svg width="36" height="25" viewBox="0 0 36 25" fill="none" xmlns="http://www.w3.org/2000/svg">
<mask id="mask0_8_23281" style="mask-type:alpha" maskUnits="userSpaceOnUse" x="4" y="0" width="11" height="11">
<path d="M4.39282 0.199951H14.3896V10.2765H4.39282V0.199951Z" fill="white"/>
</mask>
<g mask="url(#mask0_8_23281)">
<path fill-rule="evenodd" clip-rule="evenodd" d="M9.39086 1.67929C7.44449 1.67929 5.86067 3.27577 5.86067 5.23844C5.86067 7.20038 7.44449 8.79685 9.39086 8.79685C11.3372 8.79685 12.9218 7.20038 12.9218 5.23844C12.9218 3.27577 11.3372 1.67929 9.39086 1.67929ZM9.39086 10.2764C6.63497 10.2764 4.39282 8.01637 4.39282 5.23844C4.39282 2.45978 6.63497 0.199707 9.39086 0.199707C12.1468 0.199707 14.3896 2.45978 14.3896 5.23844C14.3896 8.01637 12.1468 10.2764 9.39086 10.2764Z" fill="white"/>
</g>
<mask id="mask1_8_23281" style="mask-type:alpha" maskUnits="userSpaceOnUse" x="0" y="12" width="19" height="13">
<path d="M0 12.8658H18.715V24.3918H0V12.8658Z" fill="white"/>
</mask>
<g mask="url(#mask1_8_23281)">
<path fill-rule="evenodd" clip-rule="evenodd" d="M1.46785 22.9122V22.1429C1.46785 18.5031 3.74302 15.211 6.7668 13.9755L5.66591 12.8658C2.39994 14.486 0 18.1332 0 22.1429V24.3918H7.97044L6.46589 22.9122H1.46785ZM13.3281 12.999L12.2345 14.1013C15.1115 15.4255 17.2473 18.6214 17.2473 22.1429V22.9122H12.6749L11.163 24.3918H18.7151V22.1429C18.7151 18.2441 16.4546 14.6931 13.3281 12.999Z" fill="white"/>
</g>
<path fill-rule="evenodd" clip-rule="evenodd" d="M9.6805 14.2345L11.1997 22.0541L9.56307 23.6521L7.93375 22.0541L9.44564 14.2345L7.61816 12.385H11.508L9.6805 14.2345Z" fill="white"/>
<path fill-rule="evenodd" clip-rule="evenodd" d="M36 12L32 16L28 12H36Z" fill="#2196F3"/>
</svg>
