<svg width="241" height="40" viewBox="0 0 241 40" fill="none" xmlns="http://www.w3.org/2000/svg">
<rect x="175" y="6" width="54" height="28" fill="#E9EEF4"/>
<path fill-rule="evenodd" clip-rule="evenodd" d="M202 11.4681C200.053 11.4681 198.468 13.0524 198.468 15.0001C198.468 16.9471 200.053 18.5314 202 18.5314C203.947 18.5314 205.532 16.9471 205.532 15.0001C205.532 13.0524 203.947 11.4681 202 11.4681ZM202 19.9998C199.243 19.9998 197 17.7569 197 15.0001C197 12.2426 199.243 9.99976 202 9.99976C204.756 9.99976 207 12.2426 207 15.0001C207 17.7569 204.756 19.9998 202 19.9998Z" fill="#096299"/>
<path d="M210.25 30V31.25H193.75V30C193.75 25.4437 197.444 21.75 202 21.75C206.556 21.75 210.25 25.4437 210.25 30Z" stroke="#096299" stroke-width="1.5"/>
<rect x="163.5" y="0.5" width="77" height="39" stroke="#2196F3"/>
<rect y="7" width="54" height="28" fill="#E9EEF4"/>
<path fill-rule="evenodd" clip-rule="evenodd" d="M26.9996 11.4681C25.0526 11.4681 23.4683 13.0524 23.4683 15.0001C23.4683 16.9471 25.0526 18.5314 26.9996 18.5314C28.9466 18.5314 30.5317 16.9471 30.5317 15.0001C30.5317 13.0524 28.9466 11.4681 26.9996 11.4681ZM26.9996 19.9998C24.2429 19.9998 22 17.7569 22 15.0001C22 12.2426 24.2429 9.99976 26.9996 9.99976C29.7564 9.99976 32 12.2426 32 15.0001C32 17.7569 29.7564 19.9998 26.9996 19.9998Z" fill="#096299"/>
<path d="M35.25 30V31.25H18.75V30C18.75 25.4437 22.4437 21.75 27 21.75C31.5563 21.75 35.25 25.4437 35.25 30Z" stroke="#096299" stroke-width="1.5"/>
<rect x="27.5" y="0.5" width="77" height="39" stroke="#DD0000"/>
<g clip-path="url(#clip0_8_23312)">
<path d="M125 19H139.17L135.59 15.41L137 14L143 20L137 26L135.59 24.59L139.17 21H125V19Z" fill="#2196F3"/>
</g>
<defs>
<clipPath id="clip0_8_23312">
<rect width="24" height="24" fill="white" transform="matrix(-1 0 0 1 146 8)"/>
</clipPath>
</defs>
</svg>
