<svg width="56" height="56" viewBox="0 0 56 56" fill="none" xmlns="http://www.w3.org/2000/svg">
<path d="M28 10C18.0745 10 10 18.0745 10 28C10 37.9255 18.0745 46 28 46C37.9255 46 46 37.9255 46 28C46 18.0745 37.9255 10 28 10ZM28 13C36.3025 13 43 19.6975 43 28C43 36.3025 36.3025 43 28 43C19.6975 43 13 36.3025 13 28C13 19.6975 19.6975 13 28 13ZM21.25 22C20.6533 22 20.081 22.2371 19.659 22.659C19.2371 23.081 19 23.6533 19 24.25C19 24.8467 19.2371 25.419 19.659 25.841C20.081 26.2629 20.6533 26.5 21.25 26.5C21.8467 26.5 22.419 26.2629 22.841 25.841C23.2629 25.419 23.5 24.8467 23.5 24.25C23.5 23.6533 23.2629 23.081 22.841 22.659C22.419 22.2371 21.8467 22 21.25 22ZM34.75 22C34.1533 22 33.581 22.2371 33.159 22.659C32.7371 23.081 32.5 23.6533 32.5 24.25C32.5 24.8467 32.7371 25.419 33.159 25.841C33.581 26.2629 34.1533 26.5 34.75 26.5C35.3467 26.5 35.919 26.2629 36.341 25.841C36.7629 25.419 37 24.8467 37 24.25C37 23.6533 36.7629 23.081 36.341 22.659C35.919 22.2371 35.3467 22 34.75 22ZM20.218 32.5L17.641 34C19.7155 37.5805 23.5705 40 28 40C32.4295 40 36.2845 37.5805 38.359 34L35.782 32.5C34.9958 33.8687 33.8622 35.0056 32.4957 35.7958C31.1293 36.586 29.5785 37.0014 28 37C26.4215 37.0014 24.8707 36.586 23.5043 35.7958C22.1378 35.0056 21.0042 33.8687 20.218 32.5V32.5Z" fill="#F2A900"/>
</svg>
